<svg width="57" height="57" viewBox="0 0 57 57" fill="none" xmlns="http://www.w3.org/2000/svg">
<rect x="1" y="1" width="55" height="55" rx="5" fill="#E5E7EA"/>
<path d="M51.4167 1H5.58333C3.05203 1 1 3.05203 1 5.58333V51.4167C1 53.948 3.05203 56 5.58333 56H51.4167C53.948 56 56 53.948 56 51.4167V5.58333C56 3.05203 53.948 1 51.4167 1Z" stroke="white" stroke-width="2" stroke-linejoin="round"/>
<path d="M1 34.6111L17.3365 19.6358C17.8872 19.1312 18.6036 18.8457 19.3504 18.8333C20.0972 18.8209 20.8227 19.0825 21.3897 19.5686L40.7222 36.1389M34.6111 28.5L41.9032 21.2079C42.4233 20.6875 43.1138 20.3722 43.8477 20.32C44.5817 20.2678 45.3098 20.4821 45.8983 20.9237L56 28.5M1 22.3889V37.6667M56 22.3889V37.6667" stroke="white" stroke-width="2" stroke-linecap="round" stroke-linejoin="round"/>
</svg>
