<svg width="57" height="57" viewBox="0 0 57 57" fill="none" xmlns="http://www.w3.org/2000/svg">
<path d="M1 35.7782L17.3365 20.803C17.8872 20.2983 18.6036 20.0128 19.3504 20.0004C20.0972 19.988 20.8227 20.2496 21.3897 20.7357L40.7222 37.306M34.6111 29.6671L41.9032 22.375C42.4233 21.8546 43.1138 21.5393 43.8477 21.4871C44.5817 21.4349 45.3098 21.6493 45.8983 22.0909L56 29.6671M1 23.556V38.8338M56 23.556V38.8338" stroke="#D7D9DD" stroke-width="2" stroke-linecap="round" stroke-linejoin="round"/>
<path d="M5 1H52C54.2091 1 56 2.79086 56 5V56H1V5C1 2.79086 2.79086 1 5 1Z" stroke="#D7D9DD" stroke-width="2"/>
</svg>
