<svg width="896" height="768" viewBox="0 0 896 768" fill="none" xmlns="http://www.w3.org/2000/svg">
<path d="M32 768C23.5131 768 15.3737 764.629 9.37258 758.627C3.37142 752.626 0 744.487 0 736V32C0 23.5131 3.37142 15.3738 9.37258 9.37259C15.3737 3.37143 23.5131 0 32 0H864C872.487 0 880.626 3.37143 886.627 9.37259C892.629 15.3738 896 23.5131 896 32V736C896 744.487 892.629 752.626 886.627 758.627C880.626 764.629 872.487 768 864 768H32ZM347.52 539.52L278.592 470.592C272.591 464.593 264.453 461.223 255.968 461.223C247.483 461.223 239.345 464.593 233.344 470.592L101.5 677H450.5H800L600.576 349.504C597.573 345.892 593.812 342.985 589.559 340.989C585.306 338.994 580.666 337.96 575.968 337.96C571.27 337.96 566.63 338.994 562.377 340.989C558.124 342.985 554.363 345.892 551.36 349.504L394.752 537.408C391.903 540.825 388.373 543.611 384.387 545.587C380.401 547.564 376.047 548.687 371.602 548.886C367.157 549.085 362.72 548.354 358.574 546.742C354.427 545.129 350.662 542.669 347.52 539.52ZM192 256C192.004 268.611 194.492 281.098 199.322 292.747C204.152 304.397 211.229 314.981 220.15 323.896C229.07 332.81 239.659 339.88 251.312 344.702C262.964 349.524 275.453 352.004 288.064 352C300.675 351.996 313.162 349.508 324.811 344.678C336.461 339.848 347.045 332.771 355.96 323.85C364.874 314.93 371.944 304.341 376.766 292.688C381.588 281.036 384.068 268.547 384.064 255.936C384.056 230.467 373.93 206.044 355.914 188.04C337.899 170.037 313.469 159.928 288 159.936C262.531 159.944 238.108 170.07 220.104 188.086C202.101 206.101 191.992 230.531 192 256Z" fill="#777777"/>
</svg>
